<svg id="Layer_1" data-name="Layer 1" xmlns="http://www.w3.org/2000/svg" xmlns:xlink="http://www.w3.org/1999/xlink" viewBox="0 0 1000 1000"><defs><style>.cls-1{fill:none;}.cls-2{fill:#8fe6e8;}.cls-3{clip-path:url(#clip-path);}.cls-4{fill:#f8e7e0;}.cls-5{fill:#005276;}.cls-6{fill:#dbcfcd;}.cls-7{fill:#75c3cb;}.cls-8{fill:#25a7dd;}.cls-9{fill:#f1f1f1;}.cls-10{fill:#2594b3;}.cls-11{fill:#25a7cd;}.cls-12{fill:#8fcfcd;}</style><clipPath id="clip-path"><path class="cls-1" d="M827.17,595.52c0,179.14-145.22,324.37-324.37,324.37S178.44,774.66,178.44,595.52,323.66,271.15,502.81,271.15,827.17,416.37,827.17,595.52"/></clipPath></defs><title>Final</title><path class="cls-2" d="M827.17,595.52c0,179.14-145.22,324.37-324.37,324.37S178.44,774.66,178.44,595.52,323.66,271.15,502.81,271.15,827.17,416.37,827.17,595.52"/><g class="cls-3"><path class="cls-4" d="M701.78,930.66V911.34c0-98.45-80.55-179-179-179H484.13c-98.46,0-179,80.55-179,179v19.32H701.78"/><path class="cls-5" d="M707,930.66V911.34A184.76,184.76,0,0,0,522.77,727.1H484.13A184.76,184.76,0,0,0,299.9,911.34v19.32a5.23,5.23,0,1,0,10.46,0V911.34A174.31,174.31,0,0,1,484.13,737.56h38.64A174.31,174.31,0,0,1,696.55,911.34v19.32a5.23,5.23,0,1,0,10.46,0h0"/><path class="cls-6" d="M354.72,795.68a174.52,174.52,0,0,0-33.4,55.07q9.58,6.83,19.68,12.94a185.21,185.21,0,0,1,23-53.19q-4.41-7.78-9.25-14.81"/><path class="cls-5" d="M352.88,793.05a182.87,182.87,0,0,0-32.29,57.18l.73.52a174.52,174.52,0,0,1,33.4-55.07q-.91-1.33-1.84-2.63"/><path class="cls-5" d="M605.13,930.66A247.88,247.88,0,0,1,612.25,871c7.93-32.76,21.56-61.63,38.34-84.12a178.51,178.51,0,0,0-128.34-54.55H483.61A178.52,178.52,0,0,0,355,787.12c16.76,22.6,30.41,51.64,38.39,84.6a251.8,251.8,0,0,1,7.23,58.94H605.13"/><path class="cls-5" d="M610.36,930.62q0-.7,0-1.4a243.18,243.18,0,0,1,7-57c7.77-32.11,21.13-60.36,37.45-82.23l2.66-3.57-3.1-3.2a183.75,183.75,0,0,0-132.1-56.14H483.61a183.75,183.75,0,0,0-132.34,56.39l-3.08,3.19,2.64,3.56c16.29,22,29.69,50.4,37.51,82.72a246.59,246.59,0,0,1,7.08,57.71,5.23,5.23,0,1,0,10.46,0,257,257,0,0,0-7.38-60.16c-8.14-33.6-22-63.26-39.27-86.49l-4.2,3.11,3.76,3.63a173.29,173.29,0,0,1,124.82-53.2h38.64a173.28,173.28,0,0,1,124.59,53l3.75-3.64-4.19-3.13c-17.25,23.13-31.14,52.61-39.23,86a253.53,253.53,0,0,0-7.27,59.45q0,.74,0,1.47a5.23,5.23,0,1,0,10.46-.07"/><path class="cls-4" d="M503.45,802a50.94,50.94,0,0,1-50.79-50.79V669.09a50.79,50.79,0,1,1,101.58,0v82.16A50.94,50.94,0,0,1,503.45,802"/><path class="cls-5" d="M503.45,802v-5.23a45.71,45.71,0,0,1-45.56-45.56V669.09a45.56,45.56,0,0,1,91.13,0v82.16a45.71,45.71,0,0,1-45.56,45.56v10.46a56.17,56.17,0,0,0,56-56V669.09a56,56,0,0,0-112,0v82.16a56.17,56.17,0,0,0,56,56V802"/><path class="cls-6" d="M457.89,720.53v30.73a45.71,45.71,0,0,0,45.56,45.56h0a45.35,45.35,0,0,0,8.93-.89c-24.53-4.08-43.47-27-43.47-54.49V723.17q-5.57-1.16-11-2.64"/><path class="cls-5" d="M450.42,703v44.64c0,30.32,23.08,55.14,51.3,55.14a48.07,48.07,0,0,0,24.2-6.57,47.18,47.18,0,0,1-13.53-.29,45.35,45.35,0,0,1-8.93.89h0a45.71,45.71,0,0,1-45.56-45.56V720.53l-1.27-.35V704.6q-3.12-.74-6.2-1.59"/><path class="cls-6" d="M549,705.2a204.17,204.17,0,0,1-44.92,5h0a204.7,204.7,0,0,1-35.17-3v16A194.66,194.66,0,0,0,549,723V705.2"/><path class="cls-5" d="M559.22,702.62q-5,1.42-10.2,2.58V723q5.15-1.1,10.2-2.46V702.62"/><path class="cls-6" d="M457.89,704.9v15.62q5.46,1.48,11,2.64v-16q-5.56-1-11-2.24"/><path class="cls-5" d="M456.62,704.6v15.58l1.27.35V704.9l-1.27-.3"/></g><path class="cls-7" d="M827.17,595.52H816a313.16,313.16,0,1,1-91.72-221.44A312.13,312.13,0,0,1,816,595.52h22.41A335.57,335.57,0,1,0,740.09,832.8a334.57,334.57,0,0,0,98.29-237.28h-11.2"/><path class="cls-8" d="M508,595.52h-7.89C371,595.52,266.3,490.82,266.3,361.66V297.92C266.3,168.76,371,64.06,500.15,64.06H508c129.15,0,233.85,104.7,233.85,233.85v63.75c0,129.15-104.7,233.85-233.85,233.85"/><path class="cls-5" d="M508,595.52v-5.23h-7.89A228.62,228.62,0,0,1,271.53,361.66V297.92A228.62,228.62,0,0,1,500.15,69.29H508A228.62,228.62,0,0,1,736.67,297.92v63.75A228.62,228.62,0,0,1,508,590.29v10.46A239.08,239.08,0,0,0,747.12,361.66V297.92A239.08,239.08,0,0,0,508,58.84h-7.89A239.08,239.08,0,0,0,261.07,297.92v63.75A239.08,239.08,0,0,0,500.15,600.74H508v-5.23"/><path class="cls-9" d="M695.87,207.71a227.42,227.42,0,0,1,13.37,29.12,5.23,5.23,0,0,0,9.79-3.68,237.87,237.87,0,0,0-14-30.46,5.23,5.23,0,1,0-9.17,5Z"/><path class="cls-9" d="M622.53,127.43A229.92,229.92,0,0,1,681,184.14a5.23,5.23,0,0,0,8.49-6.1,240.39,240.39,0,0,0-61.16-59.29,5.23,5.23,0,1,0-5.83,8.68Z"/><path class="cls-9" d="M507.65,89a227.29,227.29,0,0,1,91,24.38,5.23,5.23,0,0,0,4.74-9.32,237.75,237.75,0,0,0-95.23-25.5A5.23,5.23,0,1,0,507.65,89Z"/><path class="cls-10" d="M385.78,99.91a228.9,228.9,0,0,0-114.26,198v63.75a228.45,228.45,0,0,0,11.26,71.07,44.42,44.42,0,0,1,17.76-6.09V394.52a204.93,204.93,0,0,1,2.61-32.65l-.07-.81h-1.8l.93-11.56h-.93a4.48,4.48,0,1,1,0-9h.88V316.23a4.48,4.48,0,0,1,0-8.37v-30.6c0-71.22,32.51-134.91,83.63-177.36"/><path class="cls-5" d="M408.13,83.48c-81.8,36-138.84,117.19-138.84,211.53V358.1a229,229,0,0,0,12.61,75.18l.89-.55a228.45,228.45,0,0,1-11.26-71.07V297.92a228.9,228.9,0,0,1,114.26-198,234.7,234.7,0,0,1,22.35-16.43"/><path class="cls-5" d="M303.76,316.53c20.4,0,44.77-3.22,70.15-8.46,38.05-7.87,78.3-20.31,110.24-33.59,16-6.65,29.86-13.49,40.45-20.18a89.38,89.38,0,0,0,13.31-10c3.52-3.33,6.18-6.64,7.59-10.38a4.48,4.48,0,1,0-8.4-3.12,15,15,0,0,1-2.77,4.32c-2.71,3.17-7.28,6.91-13.3,10.8-10.53,6.83-25.43,14.19-42.79,21.28a627.24,627.24,0,0,1-88.76,28.2c-31.1,7.43-61.76,12.16-85.72,12.15a4.48,4.48,0,1,0,0,9"/><path class="cls-4" d="M305.77,534.14a39.59,39.59,0,0,1-39.47-39.47V471a39.47,39.47,0,0,1,78.94,0v23.64a39.59,39.59,0,0,1-39.47,39.47"/><path class="cls-5" d="M305.77,534.14v-5.23a34.36,34.36,0,0,1-34.24-34.24V471A34.24,34.24,0,0,1,340,471v23.64a34.36,34.36,0,0,1-34.24,34.24v10.46a44.82,44.82,0,0,0,44.7-44.7V471a44.7,44.7,0,0,0-89.4,0v23.64a44.82,44.82,0,0,0,44.7,44.7v-5.23"/><path class="cls-6" d="M300.54,437.19a33.82,33.82,0,0,0-4.12.9c-7.08,6.18-11.47,14.67-11.47,24v20.45c0,11,6.14,20.91,15.62,27.17,0-1,0-2.07,0-3.11V437.19"/><path class="cls-5" d="M300.54,435a38.8,38.8,0,0,0-4.12,3.13,33.82,33.82,0,0,1,4.12-.9V435"/><path class="cls-4" d="M702.42,534.14h0A39.59,39.59,0,0,1,663,494.67V471a39.47,39.47,0,0,1,78.94,0v23.64A39.59,39.59,0,0,1,702.42,534.14Z"/><path class="cls-5" d="M702.42,534.14v-5.23a34.36,34.36,0,0,1-34.24-34.24V471a34.24,34.24,0,0,1,68.49,0v23.64a34.36,34.36,0,0,1-34.24,34.24v10.46a44.82,44.82,0,0,0,44.7-44.7V471a44.7,44.7,0,0,0-89.4,0v23.64a44.82,44.82,0,0,0,44.7,44.7Z"/><path class="cls-4" d="M504.1,704.94c-109.53,0-198.33-88.79-198.33-198.33V394.52C305.77,285,394.56,196.2,504.1,196.2S702.42,285,702.42,394.52V506.62c0,109.53-88.79,198.33-198.33,198.33"/><path class="cls-5" d="M504.1,704.94v-5.23A193.1,193.1,0,0,1,311,506.62V394.52a193.1,193.1,0,0,1,386.2,0V506.62a193.1,193.1,0,0,1-193.1,193.1v10.46A203.56,203.56,0,0,0,707.65,506.62V394.52a203.56,203.56,0,1,0-407.11,0V506.62A203.55,203.55,0,0,0,504.1,710.17v-5.23"/><ellipse class="cls-5" cx="406.08" cy="431.56" rx="16.87" ry="20.91"/><ellipse class="cls-5" cx="601.06" cy="431.56" rx="16.87" ry="20.91"/><path class="cls-5" d="M496.52,501.35c0-.34,0-.67,0-1a11.34,11.34,0,0,1,1.51-5.59,18.39,18.39,0,0,1,7.83-7.1,28.85,28.85,0,0,1,13.07-3,27.35,27.35,0,0,1,16.39,5.07,16.52,16.52,0,0,1,4.51,5,11.09,11.09,0,0,1,.19,10.83,17.53,17.53,0,0,1-6.86,6.82,27.69,27.69,0,0,1-11.69,3.53,5.23,5.23,0,1,0,.84,10.42,36.52,36.52,0,0,0,20.47-8,26.25,26.25,0,0,0,6.52-8,21.55,21.55,0,0,0-.34-20.75,28.76,28.76,0,0,0-12.2-11.31,39.27,39.27,0,0,0-17.83-4.14,37.72,37.72,0,0,0-22.7,7.19,26.94,26.94,0,0,0-7.33,8.27A21.83,21.83,0,0,0,486,500.34q0,1,.09,2a5.23,5.23,0,0,0,10.41-1Z"/><path class="cls-5" d="M409.08,555.93a24.15,24.15,0,0,0,2.29,10.17c2.59,5.59,7.06,10.4,12.77,14.58,8.59,6.26,20.14,11.19,33.7,14.66a187,187,0,0,0,45.72,5.41c25.28,0,48.19-4.5,65.24-12,8.52-3.79,15.61-8.34,20.79-13.75a32.89,32.89,0,0,0,6.16-8.85,24.15,24.15,0,0,0,2.29-10.17,5.23,5.23,0,0,0-10.46,0,13.68,13.68,0,0,1-1.33,5.79c-1.57,3.43-4.72,7.08-9.44,10.52-7.06,5.17-17.51,9.77-30.12,13a176.63,176.63,0,0,1-43.14,5.08c-24,0-45.74-4.36-61-11.15-7.63-3.38-13.61-7.36-17.47-11.41a22.5,22.5,0,0,1-4.24-6,13.67,13.67,0,0,1-1.33-5.79,5.23,5.23,0,1,0-10.46,0Z"/><path class="cls-5" d="M366.41,377.35a39.3,39.3,0,0,1,27.12-18.67,41.67,41.67,0,0,1,7.53-.69,38.7,38.7,0,0,1,24.19,8.29,5.23,5.23,0,0,0,6.54-8.16,49.14,49.14,0,0,0-30.73-10.58,52.12,52.12,0,0,0-9.42.86,49.75,49.75,0,0,0-34.3,23.74,5.23,5.23,0,1,0,9.06,5.22Z"/><path class="cls-5" d="M649.36,372.13a49.75,49.75,0,0,0-34.3-23.74,52.13,52.13,0,0,0-9.42-.86,49.14,49.14,0,0,0-30.73,10.58,5.23,5.23,0,0,0,6.54,8.16A38.69,38.69,0,0,1,605.64,358a41.68,41.68,0,0,1,7.53.69,39.3,39.3,0,0,1,27.12,18.67,5.23,5.23,0,0,0,9.06-5.22Z"/><path class="cls-8" d="M305.26,348.77c88.27,0,262.92-69.59,262.92-91.5,0,38.84,140.08,108.43,150.38,91.5V245.32L497.22,126.81,315.71,222.42,305.26,348.77"/><path class="cls-11" d="M305.54,349.47l-3.2,0c.15,3.87.4,7.73.74,11.55h.21q.93-5.6,2.15-11.09l.1-.51"/><path class="cls-10" d="M302.33,349.51h-.13l-.93,11.56h1.8c-.34-3.82-.59-7.68-.74-11.55"/><path class="cls-11" d="M714.14,356.52l-.47.18a16.66,16.66,0,0,1-5.67.87,32.7,32.7,0,0,1-3.73-.23c.39,2.11.75,4.23,1.07,6.37.54,0,1,0,1.54,0,3.65,0,6.17-.84,7.26-2.67v-4.55"/><path class="cls-6" d="M563.92,267.81c1,31.87,89.59,83.3,130.51,94q-.59-3.46-1.3-6.87-2.73-.8-5.67-1.82a245.38,245.38,0,0,1-27.16-11.56,386.33,386.33,0,0,1-59.51-36.24c-12.15-9.13-22.75-18.56-30.2-27.74a66.36,66.36,0,0,1-6.67-9.74m-1.15-2.25C539.54,286.7,445.92,324.75,368,341c-12.36,2.66-24.37,4.8-35.73,6.26q-.73,5.75-1.16,11.61c91.83-12,230.55-70.57,232.73-91.16q-.6-1.09-1.12-2.19"/><path class="cls-5" d="M693.13,354.9q.71,3.42,1.3,6.87a57.83,57.83,0,0,0,10.9,1.93c-.32-2.14-.68-4.25-1.07-6.37a54.79,54.79,0,0,1-5.57-1q-2.65-.6-5.57-1.46M305.43,350q-1.23,5.49-2.15,11.09h.23q.82-5.59,1.92-11.09"/><path class="cls-11" d="M699.43,347.32q1.5.37,2.86.63a31,31,0,0,0,5.69.65h.11a7.25,7.25,0,0,0,2.66-.38l.1-.05a4.49,4.49,0,0,1,.5-.63,14,14,0,0,1-4.46.61,40.3,40.3,0,0,1-7.44-.83m14.7-1.85a4,4,0,0,1-.64.81,4.51,4.51,0,0,1,.64-.11v-.7M562.34,264.64a84.48,84.48,0,0,1-12.45,9.27c-10.88,6.88-26,14.53-43.82,22.32a787.89,787.89,0,0,1-125.44,42Q374.29,339.69,368,341c77.87-16.28,171.5-54.34,194.73-75.48q-.22-.46-.43-.92"/><path class="cls-5" d="M301.27,349.52c22.64,0,50.35-4.43,79.36-11.34a787.89,787.89,0,0,0,125.44-42c17.82-7.79,32.95-15.44,43.82-22.32a81,81,0,0,0,13-9.84,25.13,25.13,0,0,0,4-4.82,13.3,13.3,0,0,0,1.26-2.67,9.59,9.59,0,0,0,.52-3,4.48,4.48,0,0,0-9,0,25.33,25.33,0,0,0,1.54,8.37c1.84,5.2,5.09,10.38,9.34,15.64,7.45,9.18,18,18.61,30.2,27.74a386.33,386.33,0,0,0,59.51,36.24,245.38,245.38,0,0,0,27.16,11.56,106.69,106.69,0,0,0,11.23,3.27,43.5,43.5,0,0,0,9.3,1.21,16.66,16.66,0,0,0,5.67-.87,10,10,0,0,0,2.61-1.4,8.37,8.37,0,0,0,2.13-2.34,4.48,4.48,0,1,0-7.66-4.66l.47.29-.34-.45-.13.16.48.29-.34-.45-.15.08a7.39,7.39,0,0,1-2.74.38,31,31,0,0,1-5.71-.65,103.13,103.13,0,0,1-15.86-4.77c-21.52-8.06-51.52-24.24-75.81-41.79-12.15-8.77-22.89-17.9-30.42-26.38a63.36,63.36,0,0,1-8.67-12,20.88,20.88,0,0,1-2.85-9.5,4.48,4.48,0,0,0-9,0h0l0,.13a9,9,0,0,1-2.07,3c-2.53,2.78-7.37,6.49-13.88,10.5-11.42,7.06-28,15.26-47.46,23.5a792.71,792.71,0,0,1-99.88,34.25c-17.48,4.69-34.76,8.61-50.94,11.34s-31.23,4.28-44.19,4.28a4.48,4.48,0,1,0,0,9"/><path class="cls-5" d="M306.75,316.53c20.13,0,43.43-3,67.51-8a587.72,587.72,0,0,0,105.12-32.71,318.28,318.28,0,0,0,40.72-20.34,134.26,134.26,0,0,0,14.73-10.23A56.21,56.21,0,0,0,544.92,235a4.48,4.48,0,1,0-7.26-5.26c-2.46,3.41-6.75,7.44-12.52,11.62-10.1,7.36-24.64,15.28-41.76,22.91-25.68,11.46-57.18,22.31-88.6,30.27s-62.78,13-88,13a4.48,4.48,0,1,0,0,9"/><path class="cls-5" d="M318.7,280.68c16.88,0,35.85-2.08,55.34-5.58a523.18,523.18,0,0,0,85.43-23.19,332.39,332.39,0,0,0,34.77-14.86c10-5.08,18.24-10.16,24.1-15.24a4.48,4.48,0,0,0-5.88-6.76,87.9,87.9,0,0,1-13.32,9.17c-9.63,5.59-22.22,11.4-36.53,16.93a509.88,509.88,0,0,1-72.14,21.52c-25.3,5.57-50.58,9-71.77,9a4.48,4.48,0,0,0,0,9h0"/><path class="cls-11" d="M339.23,314.36c-8.31,1-16.36,1.7-24,2a205.77,205.77,0,0,0-7.62,24.08c8.09-.29,16.86-1.1,26.11-2.36a208.11,208.11,0,0,1,5.54-23.71m14.59-36.14c-6.93.89-13.71,1.55-20.27,2a199,199,0,0,0-14.55,27c7.41-.42,15.21-1.19,23.28-2.28a202.23,202.23,0,0,1,11.55-26.71m54.78-64.77c-27,12.67-50.46,32.48-68.55,57.25,6.24-.55,12.67-1.32,19.23-2.28a188,188,0,0,1,49.32-55"/><path class="cls-12" d="M323,599.68c22.06,46.36,59.48,82,105.51,96a204.29,204.29,0,0,1-105.51-96"/><path class="cls-6" d="M331.15,358.91c-5.94.78-11.69,1.36-17.19,1.72a194.42,194.42,0,0,0-3,33.89V506.62a193.1,193.1,0,0,0,193.1,193.1h0a193.71,193.71,0,0,0,44.4-5.13l-50.27-2.08c-97.72,0-167.64-101-167.64-208.27V374.48q0-7.86.56-15.57"/><path class="cls-5" d="M314,360.63c-3.59.24-7.08.38-10.45.43a214.18,214.18,0,0,0-2.24,31V501.79A228.31,228.31,0,0,0,323,599.68a204.29,204.29,0,0,0,105.51,96,149.38,149.38,0,0,0,43.55,6.44l6.13,1.18c16.3,0,32.1,1.66,47.09,1.66,18.71,0,36.17-2.58,51.84-14.21-7.27,3.42-9.28,5-9.75,5.57-.28-.49-2.32-1.46-12.29-1.46l-6.61-.27a193.71,193.71,0,0,1-44.4,5.13h0A193.1,193.1,0,0,1,311,506.62V394.52a194.42,194.42,0,0,1,3-33.89"/><path class="cls-11" d="M305.55,349.47h0l-.1.51.11-.51"/><path class="cls-6" d="M332.31,347.3c-5.46.7-10.77,1.25-15.9,1.63q-1.4,5.78-2.45,11.7c5.5-.36,11.25-.94,17.19-1.72q.42-5.85,1.16-11.61"/><path class="cls-5" d="M316.41,348.93q-5.59.41-10.86.54l-.11.51q-1.1,5.48-1.92,11.09c3.37,0,6.86-.19,10.45-.43q1-5.91,2.45-11.7"/><path class="cls-5" d="M333.7,338.08c-9.25,1.26-18,2.08-26.11,2.36q-1.12,4.47-2,9h0q5.27-.12,10.86-.54c5.13-.37,10.44-.92,15.9-1.63q.59-4.65,1.38-9.23"/><path class="cls-5" d="M342.28,304.93c-8.06,1.08-15.87,1.86-23.28,2.28q-2,4.51-3.79,9.15c7.67-.3,15.71-1,24-2q1.41-4.77,3-9.43"/><path class="cls-5" d="M359.28,268.43c-6.56,1-13,1.73-19.23,2.28q-3.38,4.63-6.5,9.48c6.56-.41,13.35-1.08,20.27-2q2.6-5,5.46-9.8"/></svg>