<svg id="Layer_1" data-name="Layer 1" xmlns="http://www.w3.org/2000/svg" viewBox="0 0 60 60"><defs><style>.cls-1{fill:#0a7189;}.cls-2{fill:#005276;}.cls-3,.cls-4{fill:#fff;}.cls-4{stroke:#8fe6e8;stroke-linecap:round;stroke-miterlimit:10;stroke-width:3px;}</style></defs><title>Artboard 1</title><path class="cls-1" d="M42.72,52.72H21.09A11.65,11.65,0,0,1,9.44,41.07V18.31A11.65,11.65,0,0,1,21.09,6.66H42.72A11.65,11.65,0,0,1,54.38,18.31V41.07C54.38,47.94,47.65,52.72,42.72,52.72Z"/><rect class="cls-2" x="9.44" y="6.66" width="44.94" height="46.06" rx="11.65" ry="11.65" transform="translate(29.61 -13.83) rotate(44.05)"/><path class="cls-3" d="M35.81,26.58c-.61-.26-.27-1-.19-1.64q0-.22,0-.43c.21-2.92-.8-5.17-2.62-6.06-3.89-2.3-9.22-.59-9.22-.59-2.48.83-2.72,4.19-2.72,4.19V35.22c0,2.56.6,4.15,1.58,5.17a2.75,2.75,0,0,0,.84.76,5.44,5.44,0,0,0,.78.35c.3.13,1.38.44,1.38.44.58.14.56.1,4.16.13l4,0c1.89,0,3.51.14,4.72-.45,0,0,.82-.1,2.56-1.84C44.8,36,41.75,27.09,35.81,26.58Z"/><path class="cls-4" d="M32.9,30.39a5.44,5.44,0,0,1,5.52,5.82"/></svg>