<svg id="Layer_1" data-name="Layer 1" xmlns="http://www.w3.org/2000/svg" viewBox="0 0 60 60"><defs><style>.cls-1{fill:#0d769b;}.cls-2{fill:#005276;}.cls-3{fill:#fff;}.cls-4{fill:#b7e3ea;}</style></defs><title>logo</title><path class="cls-1" d="M42,53.6,19.17,54A12.29,12.29,0,0,1,6.68,41.9l-.4-24A12.28,12.28,0,0,1,18.36,5.42L41.16,5A12.29,12.29,0,0,1,53.65,17.13l.4,24A12.28,12.28,0,0,1,42,53.6Z"/><path class="cls-2" d="M21.49,54.87,5.11,39a12.28,12.28,0,0,1-.29-17.36L21.48,4.44a12.28,12.28,0,0,1,17.36-.29L55.22,20a12.28,12.28,0,0,1,.29,17.36L38.84,54.59A12.28,12.28,0,0,1,21.49,54.87Z"/><path class="cls-3" d="M36.15,26.31a8,8,0,0,0,.24-1.92,8.1,8.1,0,0,0-8.08-8.08H25.78a8.1,8.1,0,0,0-8.08,8.08v10A8.33,8.33,0,0,0,26,42.71h8.31a8.3,8.3,0,0,0,1.83-16.4Zm3.15,8.63a4,4,0,0,1-3.78,4.17h-.84a4,4,0,0,1-3.78-4.17V30.36h4.62a4,4,0,0,1,3.78,4.17Z"/><path class="cls-4" d="M35.52,30.36H30.9v4.58a4,4,0,0,0,3.78,4.17h.84a4,4,0,0,0,3.78-4.17v-.41A4,4,0,0,0,35.52,30.36Z"/></svg>